<?xml version="1.0" encoding="UTF-8" standalone="no"?><!DOCTYPE svg PUBLIC "-//W3C//DTD SVG 1.1//EN" "http://www.w3.org/Graphics/SVG/1.1/DTD/svg11.dtd"><svg width="100%" height="100%" viewBox="0 0 245 242" version="1.1" xmlns="http://www.w3.org/2000/svg" xmlns:xlink="http://www.w3.org/1999/xlink" xml:space="preserve" xmlns:serif="http://www.serif.com/" style="fill-rule:evenodd;clip-rule:evenodd;stroke-linejoin:round;stroke-miterlimit:2;"><path d="M214.519,143.211c3.833,-8.867 12.35,-18.104 19.804,-42.083c5.621,-18.075 9.284,-34.959 10.267,-55.2c-8.171,-4.096 -16.313,-11.48 -25.954,-15.025l-4.117,112.308Z" style="fill:#111418;"/><path d="M30.071,143.211c-3.829,-8.867 -12.346,-18.104 -19.8,-42.083c-5.621,-18.075 -9.283,-34.959 -10.271,-55.2c8.171,-4.096 16.317,-11.48 25.958,-15.025l4.113,112.308Z" style="fill:#111418;"/><path d="M174.248,32.292c-12.633,-3.846 -32.329,-6.613 -51.954,-6.975c-19.625,0.362 -39.317,3.129 -51.95,6.975c-0.083,36.696 0.313,73.483 -0.046,110.162c-0.129,12.788 0.204,13.863 6.346,20.954c6.771,7.817 37.267,34.904 45.125,35.171c0.171,0.004 0.346,0.004 0.525,-0.004c0.179,0.008 0.358,0.008 0.529,0.004c7.863,-0.267 38.35,-27.354 45.125,-35.171c6.146,-7.091 6.471,-8.166 6.35,-20.954c-0.362,-36.679 0.038,-73.467 -0.05,-110.162m25.084,-17.904c0.666,44.295 -0.138,88.849 0.091,133.183c0.113,21.925 -2.558,24.262 -23.275,42.958c-20.516,18.521 -18.496,14.85 -35.779,28.638c0,-0 13.742,0.013 24.005,0.023c6.102,0.005 11.069,4.907 11.156,11.008c0.083,5.81 0.168,11.752 0.168,11.752l-53.404,-0.029l-53.396,0.029c0,0 0.084,-5.94 0.166,-11.75c0.086,-6.102 5.054,-11.005 11.156,-11.01c10.263,-0.01 24.003,-0.023 24.003,-0.023c-17.279,-13.788 -15.262,-10.117 -35.779,-28.638c-20.712,-18.696 -23.387,-21.033 -23.275,-42.958c0.229,-44.334 -0.571,-88.888 0.092,-133.184c19.966,-9.529 52.237,-14.32 76.441,-14.387l1.188,-0c24.204,0.067 56.479,4.858 76.442,14.387" style="fill:#111418;"/><text x="93.294px" y="133.771px" style="font-family:'LEMONMILK-MediumItalic', 'LEMON MILK';font-weight:500;font-style:italic;font-size:83.333px;fill:#111418;">I<tspan x="111.361px " y="133.771px ">L</tspan></text></svg>