<?xml version="1.0" encoding="UTF-8" standalone="no"?><!DOCTYPE svg PUBLIC "-//W3C//DTD SVG 1.1//EN" "http://www.w3.org/Graphics/SVG/1.1/DTD/svg11.dtd"><svg width="100%" height="100%" viewBox="0 0 1032 242" version="1.1" xmlns="http://www.w3.org/2000/svg" xmlns:xlink="http://www.w3.org/1999/xlink" xml:space="preserve" xmlns:serif="http://www.serif.com/" style="fill-rule:evenodd;clip-rule:evenodd;stroke-linejoin:round;stroke-miterlimit:2;"><g><path d="M214.519,143.209c3.829,-8.867 12.346,-18.1 19.8,-42.079c5.621,-18.075 9.288,-34.963 10.271,-55.2c-8.171,-4.096 -16.313,-11.484 -25.954,-15.03l-4.117,112.309Z" style="fill:#111418;"/><path d="M30.071,143.209c-3.829,-8.867 -12.346,-18.1 -19.8,-42.079c-5.621,-18.075 -9.288,-34.963 -10.271,-55.2c8.171,-4.096 16.313,-11.484 25.954,-15.03l4.117,112.309Z" style="fill:#111418;"/><path d="M174.246,32.292c-12.634,-3.846 -32.325,-6.613 -51.95,-6.975c-19.625,0.362 -39.321,3.129 -51.95,6.975c-0.088,36.696 0.308,73.483 -0.05,110.162c-0.125,12.788 0.2,13.863 6.346,20.954c6.775,7.817 37.266,34.905 45.125,35.167c0.175,0.008 0.35,0.004 0.529,-0.004c0.179,0.008 0.354,0.012 0.525,0.004c7.862,-0.262 38.354,-27.35 45.125,-35.167c6.146,-7.091 6.475,-8.166 6.346,-20.954c-0.359,-36.679 0.041,-73.466 -0.046,-110.162m25.083,-17.904c0.667,44.291 -0.137,88.85 0.092,133.187c0.112,21.921 -2.559,24.254 -23.275,42.958c-20.517,18.521 -18.496,14.846 -35.775,28.634l35,0.033l0.325,22.746l-53.4,-0.025l-53.4,0.025l0.321,-22.746l35.004,-0.033c-17.279,-13.788 -15.263,-10.113 -35.779,-28.634c-20.713,-18.704 -23.384,-21.037 -23.275,-42.958c0.229,-44.337 -0.571,-88.896 0.091,-133.187c19.967,-9.53 52.238,-14.321 76.446,-14.388l1.183,0c24.205,0.067 56.48,4.858 76.442,14.388" style="fill:#111418;"/><text x="92.97px" y="136.51px" style="font-family:'LEMONMILK-MediumItalic', 'LEMON MILK';font-weight:500;font-style:italic;font-size:83.333px;fill:#111418;">I<tspan x="111.037px " y="136.51px ">L</tspan></text></g><g><path d="M326.138,101.594l-26.349,0l-16.184,83.36l26.349,0l16.184,-83.36Zm4.625,-23.821l3.958,-20.386l-26.349,0l-3.958,20.386l26.349,-0Z" style="fill:#111418;fill-rule:nonzero;"/><path d="M363.614,159.48l19.783,-102.093l-26.43,0l-24.769,127.567l74.86,0l4.985,-25.474l-48.429,0Z" style="fill:#111418;fill-rule:nonzero;"/><path d="M527.251,82.624l4.907,-25.237l-73.832,0l-24.769,127.567l73.832,0l4.985,-25.474l-47.48,0l5.064,-26.364l40.359,0l4.985,-25.553l-40.358,0l4.827,-24.939l47.48,-0Z" style="fill:#111418;fill-rule:nonzero;"/><path d="M620.145,184.954l26.747,0l-31.575,-130.732l-4.194,-0l-82.301,130.732l30.625,0l10.367,-17.807l46.453,0l3.878,17.807Zm-37.511,-39.64l20.971,-35.93l7.835,35.93l-28.806,0Z" style="fill:#111418;fill-rule:nonzero;"/><path d="M733.134,113.341l-4.59,23.653l29.045,0c-2.691,6.651 -14.167,24.702 -34.585,24.702c-19.469,0 -33.871,-16.151 -29.441,-40.365c4.432,-24.378 24.93,-40.607 43.37,-40.607c12.267,0 20.023,7.204 27.146,17.654l18.202,-21.293c-8.468,-12.183 -23.188,-22.072 -38.779,-22.309c-39.492,-0 -70.113,27.373 -76.284,66.555c-6.014,37.99 14.557,66.156 52.224,66.156c35.931,-0 62.998,-25.553 69.962,-63.388c0.317,-1.74 0.95,-5.379 1.345,-10.758l-57.615,-0Z" style="fill:#111418;fill-rule:nonzero;"/><path d="M854.041,187.724c26.75,0 48.672,-18.907 55.162,-52.303l15.116,-78.034l-26.355,0l-15.116,77.955c-3.244,16.857 -12.583,26.434 -24.692,26.434c-12.663,-0 -20.022,-10.843 -17.016,-26.434l15.117,-77.955l-26.351,0l-15.19,78.034c-5.776,29.836 10.76,52.303 39.325,52.303Z" style="fill:#111418;fill-rule:nonzero;"/><path d="M1026.39,82.624l4.907,-25.237l-73.832,0l-24.769,127.567l73.832,0l4.985,-25.474l-47.48,0l5.065,-26.364l40.358,0l4.985,-25.553l-40.358,0l4.827,-24.939l47.48,-0Z" style="fill:#111418;fill-rule:nonzero;"/></g></svg>