<?xml version="1.0" encoding="UTF-8" standalone="no"?><!DOCTYPE svg PUBLIC "-//W3C//DTD SVG 1.1//EN" "http://www.w3.org/Graphics/SVG/1.1/DTD/svg11.dtd"><svg width="100%" height="100%" viewBox="0 0 5334 542" version="1.1" xmlns="http://www.w3.org/2000/svg" xmlns:xlink="http://www.w3.org/1999/xlink" xml:space="preserve" xmlns:serif="http://www.serif.com/" style="fill-rule:evenodd;clip-rule:evenodd;stroke-linecap:round;stroke-linejoin:round;stroke-miterlimit:1.5;"><rect id="Artboard1" x="0" y="0" width="5333.33" height="541.667" style="fill:none;"/><clipPath id="_clip1"><rect id="Artboard11" serif:id="Artboard1" x="0" y="0" width="5333.33" height="541.667"/></clipPath><g clip-path="url(#_clip1)"><g id="Layer1"><path d="M0,190.282c0,0 407.268,-174.164 1275.17,-187.578c867.902,-13.414 1573.97,273.244 1989.15,312.875c415.187,39.632 1258.42,149.09 2074.05,-128.33c815.624,-277.42 285.318,322.713 285.318,322.713l-198.157,347.247c0,-0 -1020.98,-67.94 -1070.05,-66.053c-49.067,1.888 -1287.08,126.444 -1287.08,126.444c-0,-0 -671.847,-71.714 -745.449,-75.489c-73.601,-3.774 -585.035,-28.308 -602.02,-33.97c-16.985,-5.661 -1085.15,33.97 -1085.15,33.97c-0,0 -690.719,-62.278 -749.223,-77.376c-58.503,-15.097 -243.45,-81.15 -232.127,-113.232c11.324,-32.083 37.744,-120.782 79.263,-177.398c41.519,-56.616 126.443,-177.398 145.315,-194.383c18.872,-16.985 120.985,-89.44 120.985,-89.44Z" style="fill:#42f056;stroke:#42f056;stroke-width:4.17px;"/></g></g></svg>